<svg width="27" height="27" viewBox="0 0 27 27" fill="none" xmlns="http://www.w3.org/2000/svg">
<path d="M8.35313 10.6593L12.5438 3.82491C12.6563 3.63741 12.7969 3.50129 12.9656 3.41654C13.1344 3.33179 13.3125 3.28979 13.5 3.29054C13.6875 3.29129 13.8656 3.33366 14.0344 3.41766C14.2031 3.50166 14.3438 3.63741 14.4563 3.82491L18.6469 10.6593C18.7594 10.8468 18.8156 11.0437 18.8156 11.2499C18.8156 11.4562 18.7688 11.6437 18.675 11.8124C18.5813 11.9812 18.45 12.1173 18.2813 12.2208C18.1125 12.3243 17.9156 12.3757 17.6906 12.3749H9.30938C9.08438 12.3749 8.8875 12.3235 8.71875 12.2208C8.55 12.118 8.41875 11.9819 8.325 11.8124C8.23125 11.6429 8.18438 11.4554 8.18438 11.2499C8.18438 11.0444 8.24063 10.8475 8.35313 10.6593ZM19.6875 24.7499C18.2813 24.7499 17.0861 24.2579 16.1021 23.2739C15.1181 22.2899 14.6258 21.0944 14.625 19.6874C14.6243 18.2804 15.1166 17.0853 16.1021 16.102C17.0876 15.1188 18.2828 14.6264 19.6875 14.6249C21.0923 14.6234 22.2878 15.1158 23.274 16.102C24.2603 17.0883 24.7523 18.2834 24.75 19.6874C24.7478 21.0914 24.2558 22.2869 23.274 23.2739C22.2923 24.2609 21.0968 24.7529 19.6875 24.7499ZM3.375 23.0624V16.3124C3.375 15.9937 3.483 15.7267 3.699 15.5114C3.915 15.2962 4.182 15.1882 4.5 15.1874H11.25C11.5688 15.1874 11.8361 15.2954 12.0521 15.5114C12.2681 15.7274 12.3758 15.9944 12.375 16.3124V23.0624C12.375 23.3812 12.267 23.6485 12.051 23.8645C11.835 24.0805 11.568 24.1882 11.25 24.1874H4.5C4.18125 24.1874 3.91425 24.0794 3.699 23.8634C3.48375 23.6474 3.37575 23.3804 3.375 23.0624Z" fill="#6B7280"/>
</svg>
