<svg width="1068" height="308" viewBox="0 0 1068 308" fill="none" xmlns="http://www.w3.org/2000/svg">
<path d="M0 10.9203C0 4.88917 4.88916 0 10.9202 0H1057.08C1063.11 0 1068 4.88916 1068 10.9202V297.031C1068 303.062 1063.11 307.951 1057.08 307.951H10.9203C4.88921 307.951 0 303.062 0 297.031V10.9203Z" fill="white"/>
<path d="M24.6927 57.7248C25.8022 56.8337 26.6715 56.1042 27.3005 55.5364C27.9295 54.9598 28.458 54.3613 28.8861 53.7411C29.3229 53.1121 29.5413 52.4962 29.5413 51.8934C29.5413 51.3255 29.4015 50.88 29.122 50.5567C28.8512 50.2248 28.41 50.0588 27.7985 50.0588C27.2044 50.0588 26.7414 50.2466 26.4094 50.6223C26.0862 50.9892 25.9114 51.4828 25.8852 52.103H24.732C24.767 51.1246 25.064 50.3689 25.6231 49.836C26.1823 49.3031 26.903 49.0366 27.7853 49.0366C28.6852 49.0366 29.3972 49.2856 29.9213 49.7836C30.4543 50.2815 30.7207 50.9673 30.7207 51.841C30.7207 52.5661 30.5023 53.2737 30.0655 53.9638C29.6374 54.6453 29.1482 55.2481 28.5978 55.7722C28.0474 56.2877 27.3442 56.8905 26.488 57.5806H30.9959V58.5766H24.6927V57.7248ZM32.3744 53.8459C32.3744 52.3433 32.619 51.1726 33.1083 50.334C33.5975 49.4865 34.4536 49.0628 35.6767 49.0628C36.891 49.0628 37.7428 49.4865 38.232 50.334C38.7213 51.1726 38.9659 52.3433 38.9659 53.8459C38.9659 55.3747 38.7213 56.5629 38.232 57.4103C37.7428 58.2577 36.891 58.6814 35.6767 58.6814C34.4536 58.6814 33.5975 58.2577 33.1083 57.4103C32.619 56.5629 32.3744 55.3747 32.3744 53.8459ZM37.7865 53.8459C37.7865 53.0859 37.7341 52.4438 37.6292 51.9196C37.5331 51.3867 37.3278 50.9586 37.0133 50.6354C36.7076 50.3121 36.262 50.1505 35.6767 50.1505C35.0826 50.1505 34.6283 50.3121 34.3138 50.6354C34.0081 50.9586 33.8028 51.3867 33.6979 51.9196C33.6018 52.4438 33.5538 53.0859 33.5538 53.8459C33.5538 54.6322 33.6018 55.2918 33.6979 55.8247C33.8028 56.3576 34.0081 56.7856 34.3138 57.1089C34.6283 57.4321 35.0826 57.5937 35.6767 57.5937C36.262 57.5937 36.7076 57.4321 37.0133 57.1089C37.3278 56.7856 37.5331 56.3576 37.6292 55.8247C37.7341 55.2918 37.7865 54.6322 37.7865 53.8459ZM40.603 53.8459C40.603 52.3433 40.8476 51.1726 41.3368 50.334C41.8261 49.4865 42.6822 49.0628 43.9053 49.0628C45.1196 49.0628 45.9714 49.4865 46.4606 50.334C46.9498 51.1726 47.1944 52.3433 47.1944 53.8459C47.1944 55.3747 46.9498 56.5629 46.4606 57.4103C45.9714 58.2577 45.1196 58.6814 43.9053 58.6814C42.6822 58.6814 41.8261 58.2577 41.3368 57.4103C40.8476 56.5629 40.603 55.3747 40.603 53.8459ZM46.0151 53.8459C46.0151 53.0859 45.9626 52.4438 45.8578 51.9196C45.7617 51.3867 45.5564 50.9586 45.2419 50.6354C44.9361 50.3121 44.4906 50.1505 43.9053 50.1505C43.3112 50.1505 42.8569 50.3121 42.5424 50.6354C42.2367 50.9586 42.0314 51.3867 41.9265 51.9196C41.8304 52.4438 41.7824 53.0859 41.7824 53.8459C41.7824 54.6322 41.8304 55.2918 41.9265 55.8247C42.0314 56.3576 42.2367 56.7856 42.5424 57.1089C42.8569 57.4321 43.3112 57.5937 43.9053 57.5937C44.4906 57.5937 44.9361 57.4321 45.2419 57.1089C45.5564 56.7856 45.7617 56.3576 45.8578 55.8247C45.9626 55.2918 46.0151 54.6322 46.0151 53.8459Z" fill="#A9A9A9"/>
<path d="M24.5224 105.988V104.9H26.986V114.374H25.7804V105.988H24.5224ZM29.0344 109.539C29.0344 108.036 29.279 106.866 29.7682 106.027C30.2574 105.179 31.1136 104.756 32.3366 104.756C33.551 104.756 34.4027 105.179 34.892 106.027C35.3812 106.866 35.6258 108.036 35.6258 109.539C35.6258 111.068 35.3812 112.256 34.892 113.103C34.4027 113.951 33.551 114.374 32.3366 114.374C31.1136 114.374 30.2574 113.951 29.7682 113.103C29.279 112.256 29.0344 111.068 29.0344 109.539ZM34.4464 109.539C34.4464 108.779 34.394 108.137 34.2892 107.612C34.1931 107.08 33.9878 106.651 33.6733 106.328C33.3675 106.005 32.922 105.843 32.3366 105.843C31.7426 105.843 31.2883 106.005 30.9738 106.328C30.668 106.651 30.4627 107.08 30.3579 107.612C30.2618 108.137 30.2137 108.779 30.2137 109.539C30.2137 110.325 30.2618 110.985 30.3579 111.518C30.4627 112.05 30.668 112.479 30.9738 112.802C31.2883 113.125 31.7426 113.287 32.3366 113.287C32.922 113.287 33.3675 113.125 33.6733 112.802C33.9878 112.479 34.1931 112.05 34.2892 111.518C34.394 110.985 34.4464 110.325 34.4464 109.539ZM37.2629 109.539C37.2629 108.036 37.5075 106.866 37.9968 106.027C38.486 105.179 39.3421 104.756 40.5652 104.756C41.7795 104.756 42.6313 105.179 43.1205 106.027C43.6098 106.866 43.8544 108.036 43.8544 109.539C43.8544 111.068 43.6098 112.256 43.1205 113.103C42.6313 113.951 41.7795 114.374 40.5652 114.374C39.3421 114.374 38.486 113.951 37.9968 113.103C37.5075 112.256 37.2629 111.068 37.2629 109.539ZM42.675 109.539C42.675 108.779 42.6226 108.137 42.5177 107.612C42.4217 107.08 42.2164 106.651 41.9018 106.328C41.5961 106.005 41.1505 105.843 40.5652 105.843C39.9711 105.843 39.5169 106.005 39.2024 106.328C38.8966 106.651 38.6913 107.08 38.5865 107.612C38.4904 108.137 38.4423 108.779 38.4423 109.539C38.4423 110.325 38.4904 110.985 38.5865 111.518C38.6913 112.05 38.8966 112.479 39.2024 112.802C39.5169 113.125 39.9711 113.287 40.5652 113.287C41.1505 113.287 41.5961 113.125 41.9018 112.802C42.2164 112.479 42.4217 112.05 42.5177 111.518C42.6226 110.985 42.675 110.325 42.675 109.539Z" fill="#A9A9A9"/>
<path d="M30.878 161.628H26.2784V164.616C26.4793 164.337 26.7763 164.11 27.1694 163.935C27.5626 163.751 27.9863 163.66 28.4406 163.66C29.1657 163.66 29.7554 163.813 30.2096 164.118C30.6639 164.415 30.9872 164.804 31.1794 165.285C31.3803 165.756 31.4808 166.259 31.4808 166.792C31.4808 167.421 31.3628 167.984 31.1269 168.482C30.8911 168.98 30.5285 169.373 30.0393 169.661C29.5588 169.95 28.9604 170.094 28.244 170.094C27.3267 170.094 26.5841 169.858 26.0163 169.386C25.4484 168.914 25.1033 168.285 24.981 167.499H26.1473C26.2609 167.997 26.5011 168.386 26.868 168.665C27.235 168.945 27.698 169.085 28.2571 169.085C28.9473 169.085 29.4671 168.88 29.8165 168.469C30.166 168.05 30.3407 167.499 30.3407 166.818C30.3407 166.136 30.166 165.612 29.8165 165.245C29.4671 164.87 28.9516 164.682 28.2702 164.682C27.8072 164.682 27.401 164.795 27.0515 165.022C26.7108 165.241 26.4618 165.542 26.3046 165.927H25.1776V160.58H30.878V161.628ZM33.0655 165.232C33.0655 163.73 33.3101 162.559 33.7993 161.72C34.2885 160.873 35.1447 160.449 36.3677 160.449C37.5821 160.449 38.4339 160.873 38.9231 161.72C39.4123 162.559 39.6569 163.73 39.6569 165.232C39.6569 166.761 39.4123 167.949 38.9231 168.797C38.4339 169.644 37.5821 170.068 36.3677 170.068C35.1447 170.068 34.2885 169.644 33.7993 168.797C33.3101 167.949 33.0655 166.761 33.0655 165.232ZM38.4775 165.232C38.4775 164.472 38.4251 163.83 38.3203 163.306C38.2242 162.773 38.0189 162.345 37.7044 162.022C37.3986 161.698 36.9531 161.537 36.3677 161.537C35.7737 161.537 35.3194 161.698 35.0049 162.022C34.6991 162.345 34.4938 162.773 34.389 163.306C34.2929 163.83 34.2448 164.472 34.2448 165.232C34.2448 166.018 34.2929 166.678 34.389 167.211C34.4938 167.744 34.6991 168.172 35.0049 168.495C35.3194 168.818 35.7737 168.98 36.3677 168.98C36.9531 168.98 37.3986 168.818 37.7044 168.495C38.0189 168.172 38.2242 167.744 38.3203 167.211C38.4251 166.678 38.4775 166.018 38.4775 165.232Z" fill="#A9A9A9"/>
<path d="M24.8369 220.925C24.8369 219.423 25.0815 218.252 25.5707 217.413C26.0599 216.566 26.9161 216.142 28.1392 216.142C29.3535 216.142 30.2053 216.566 30.6945 217.413C31.1837 218.252 31.4283 219.423 31.4283 220.925C31.4283 222.454 31.1837 223.642 30.6945 224.49C30.2053 225.337 29.3535 225.761 28.1392 225.761C26.9161 225.761 26.0599 225.337 25.5707 224.49C25.0815 223.642 24.8369 222.454 24.8369 220.925ZM30.249 220.925C30.249 220.165 30.1965 219.523 30.0917 218.999C29.9956 218.466 29.7903 218.038 29.4758 217.715C29.17 217.391 28.7245 217.23 28.1392 217.23C27.5451 217.23 27.0908 217.391 26.7763 217.715C26.4705 218.038 26.2652 218.466 26.1604 218.999C26.0643 219.523 26.0163 220.165 26.0163 220.925C26.0163 221.712 26.0643 222.371 26.1604 222.904C26.2652 223.437 26.4705 223.865 26.7763 224.188C27.0908 224.511 27.5451 224.673 28.1392 224.673C28.7245 224.673 29.17 224.511 29.4758 224.188C29.7903 223.865 29.9956 223.437 30.0917 222.904C30.1965 222.371 30.249 221.712 30.249 220.925Z" fill="#A9A9A9"/>
<path d="M61.1533 146.465C144.679 146.465 107.808 75.8961 163.492 75.8961C219.176 75.8961 193.591 146.465 249.275 146.465C304.959 146.465 275.612 186.191 338.821 186.191C402.03 186.191 380.208 163.258 423.1 163.258C465.992 163.258 481.794 186.191 517.161 186.191C552.528 186.191 553.28 110.841 591.657 110.841C630.034 110.841 627.776 75.8961 669.163 75.8961C710.55 75.8961 686.307 173.086 743.659 173.086C801.012 173.086 772.631 135.055 841.483 135.055C910.335 135.055 878.539 66.0679 932.534 66.0679C986.529 66.0679 968.653 163.258 1046.16 163.258" stroke="black" stroke-width="3.27607" stroke-linecap="round"/>
<path d="M163.492 75.8961C107.808 75.8961 144.679 146.465 61.1533 146.465V224.411H1046.16V163.258C968.653 163.258 986.529 66.0679 932.534 66.0679C878.539 66.0679 910.335 135.055 841.483 135.055C772.631 135.055 801.012 173.086 743.659 173.086C686.307 173.086 710.55 75.8961 669.163 75.8961C627.776 75.8961 630.034 110.841 591.657 110.841C553.28 110.841 552.528 186.191 517.161 186.191C481.794 186.191 465.992 163.258 423.1 163.258C380.208 163.258 402.03 186.191 338.821 186.191C275.612 186.191 304.959 146.465 249.275 146.465C193.591 146.465 219.176 75.8961 163.492 75.8961Z" fill="url(#paint0_linear_189_689)"/>
<path d="M73.0165 267.109H74.5553V276.192C74.5553 277.003 74.4064 277.692 74.1085 278.259C73.8107 278.825 73.3909 279.255 72.849 279.549C72.3071 279.843 71.668 279.99 70.9317 279.99C70.2368 279.99 69.6184 279.863 69.0765 279.611C68.5347 279.355 68.1086 278.991 67.7984 278.519C67.4881 278.048 67.333 277.487 67.333 276.838H68.847C68.847 277.198 68.9359 277.512 69.1138 277.781C69.2958 278.046 69.544 278.252 69.8583 278.401C70.1727 278.55 70.5305 278.625 70.9317 278.625C71.3743 278.625 71.7508 278.532 72.061 278.345C72.3712 278.159 72.607 277.886 72.7683 277.526C72.9338 277.162 73.0165 276.718 73.0165 276.192V267.109ZM80.245 280.039C79.6411 280.039 79.093 279.926 78.6007 279.698C78.1085 279.466 77.7176 279.133 77.428 278.699C77.1385 278.261 76.9937 277.731 76.9937 277.111C76.9937 276.565 77.1013 276.122 77.3164 275.783C77.5315 275.44 77.8189 275.171 78.1788 274.976C78.5387 274.782 78.9358 274.637 79.3701 274.542C79.8086 274.443 80.2491 274.364 80.6917 274.306C81.2708 274.232 81.7403 274.176 82.1002 274.139C82.4642 274.097 82.7289 274.029 82.8944 273.934C83.064 273.839 83.1488 273.673 83.1488 273.438V273.388C83.1488 272.776 82.9812 272.3 82.6462 271.961C82.3153 271.622 81.8127 271.452 81.1384 271.452C80.4394 271.452 79.8913 271.605 79.4942 271.911C79.0971 272.217 78.8179 272.544 78.6566 272.891L77.2667 272.395C77.5149 271.816 77.8458 271.365 78.2595 271.042C78.6773 270.716 79.1323 270.488 79.6245 270.36C80.1209 270.228 80.609 270.161 81.0888 270.161C81.3949 270.161 81.7465 270.199 82.1436 270.273C82.5448 270.343 82.9316 270.49 83.3039 270.714C83.6803 270.937 83.9926 271.274 84.2408 271.725C84.489 272.176 84.6131 272.78 84.6131 273.537V279.816H83.1488V278.525H83.0743C82.975 278.732 82.8096 278.953 82.5779 279.189C82.3463 279.425 82.0381 279.626 81.6534 279.791C81.2687 279.957 80.7993 280.039 80.245 280.039ZM80.4683 278.724C81.0474 278.724 81.5355 278.61 81.9326 278.383C82.3339 278.155 82.6358 277.861 82.8385 277.502C83.0454 277.142 83.1488 276.763 83.1488 276.366V275.026C83.0867 275.1 82.9502 275.169 82.7393 275.231C82.5324 275.289 82.2925 275.34 82.0195 275.386C81.7506 275.427 81.488 275.464 81.2315 275.497C80.9792 275.526 80.7744 275.551 80.6173 275.572C80.2367 275.622 79.881 275.702 79.55 275.814C79.2233 275.921 78.9585 276.085 78.7558 276.304C78.5573 276.519 78.458 276.813 78.458 277.185C78.458 277.694 78.6462 278.079 79.0227 278.339C79.4032 278.596 79.8851 278.724 80.4683 278.724ZM88.75 274.083V279.816H87.2857V270.286H88.7004V271.775H88.8245C89.0479 271.291 89.3871 270.902 89.8421 270.608C90.2971 270.31 90.8845 270.161 91.6042 270.161C92.2495 270.161 92.8141 270.294 93.2981 270.559C93.782 270.819 94.1585 271.216 94.4273 271.75C94.6962 272.279 94.8306 272.949 94.8306 273.76V279.816H93.3663V273.859C93.3663 273.111 93.1719 272.527 92.7831 272.11C92.3943 271.688 91.8607 271.477 91.1823 271.477C90.7149 271.477 90.2971 271.578 89.9289 271.781C89.5649 271.984 89.2774 272.279 89.0665 272.668C88.8555 273.057 88.75 273.529 88.75 274.083Z" fill="#A9A9A9"/>
<path d="M152.753 279.816V267.109H160.372V268.474H154.292V272.767H159.802V274.132H154.292V279.816H152.753ZM166.106 280.014C165.187 280.014 164.395 279.812 163.729 279.406C163.067 278.997 162.557 278.426 162.197 277.694C161.841 276.958 161.663 276.101 161.663 275.125C161.663 274.149 161.841 273.289 162.197 272.544C162.557 271.795 163.057 271.212 163.698 270.794C164.343 270.372 165.096 270.161 165.957 270.161C166.453 270.161 166.943 270.244 167.427 270.41C167.911 270.575 168.352 270.844 168.749 271.216C169.146 271.584 169.462 272.072 169.698 272.681C169.934 273.289 170.052 274.037 170.052 274.927V275.547H162.705V274.281H168.563C168.563 273.744 168.455 273.264 168.24 272.842C168.029 272.42 167.727 272.087 167.334 271.843C166.945 271.599 166.486 271.477 165.957 271.477C165.373 271.477 164.869 271.622 164.443 271.911C164.021 272.197 163.696 272.569 163.469 273.028C163.241 273.487 163.127 273.979 163.127 274.505V275.349C163.127 276.068 163.251 276.678 163.5 277.179C163.752 277.675 164.101 278.054 164.548 278.314C164.995 278.571 165.514 278.699 166.106 278.699C166.49 278.699 166.838 278.645 167.148 278.538C167.462 278.426 167.733 278.261 167.961 278.041C168.188 277.818 168.364 277.541 168.488 277.21L169.903 277.607C169.754 278.087 169.504 278.509 169.152 278.873C168.801 279.233 168.366 279.514 167.849 279.717C167.332 279.915 166.751 280.014 166.106 280.014ZM172.478 279.816V267.109H173.942V271.799H174.066C174.174 271.634 174.323 271.423 174.513 271.167C174.707 270.906 174.985 270.674 175.344 270.472C175.708 270.265 176.201 270.161 176.821 270.161C177.624 270.161 178.331 270.362 178.943 270.763C179.555 271.165 180.033 271.733 180.376 272.47C180.72 273.206 180.891 274.075 180.891 275.076C180.891 276.085 180.72 276.96 180.376 277.7C180.033 278.436 179.557 279.007 178.949 279.413C178.341 279.814 177.64 280.014 176.846 280.014C176.234 280.014 175.744 279.913 175.375 279.71C175.007 279.504 174.724 279.27 174.525 279.009C174.327 278.745 174.174 278.525 174.066 278.352H173.892V279.816H172.478ZM173.917 275.051C173.917 275.77 174.023 276.405 174.234 276.956C174.445 277.502 174.753 277.93 175.158 278.24C175.564 278.546 176.06 278.699 176.647 278.699C177.26 278.699 177.77 278.538 178.18 278.215C178.594 277.888 178.904 277.45 179.111 276.9C179.322 276.345 179.427 275.729 179.427 275.051C179.427 274.381 179.324 273.777 179.117 273.239C178.914 272.697 178.606 272.269 178.192 271.955C177.783 271.636 177.268 271.477 176.647 271.477C176.052 271.477 175.551 271.628 175.146 271.93C174.74 272.228 174.434 272.645 174.228 273.183C174.021 273.717 173.917 274.339 173.917 275.051Z" fill="#A9A9A9"/>
<path d="M238.355 267.109H240.191L244.51 277.657H244.659L248.977 267.109H250.814V279.816H249.374V270.161H249.25L245.279 279.816H243.889L239.918 270.161H239.794V279.816H238.355V267.109ZM256.505 280.039C255.901 280.039 255.353 279.926 254.861 279.698C254.368 279.466 253.978 279.133 253.688 278.699C253.398 278.261 253.254 277.731 253.254 277.111C253.254 276.565 253.361 276.122 253.576 275.783C253.791 275.44 254.079 275.171 254.439 274.976C254.799 274.782 255.196 274.637 255.63 274.542C256.069 274.443 256.509 274.364 256.952 274.306C257.531 274.232 258 274.176 258.36 274.139C258.724 274.097 258.989 274.029 259.154 273.934C259.324 273.839 259.409 273.673 259.409 273.438V273.388C259.409 272.776 259.241 272.3 258.906 271.961C258.575 271.622 258.073 271.452 257.398 271.452C256.699 271.452 256.151 271.605 255.754 271.911C255.357 272.217 255.078 272.544 254.917 272.891L253.527 272.395C253.775 271.816 254.106 271.365 254.519 271.042C254.937 270.716 255.392 270.488 255.884 270.36C256.381 270.228 256.869 270.161 257.349 270.161C257.655 270.161 258.006 270.199 258.404 270.273C258.805 270.343 259.192 270.49 259.564 270.714C259.94 270.937 260.253 271.274 260.501 271.725C260.749 272.176 260.873 272.78 260.873 273.537V279.816H259.409V278.525H259.334C259.235 278.732 259.07 278.953 258.838 279.189C258.606 279.425 258.298 279.626 257.913 279.791C257.529 279.957 257.059 280.039 256.505 280.039ZM256.728 278.724C257.307 278.724 257.796 278.61 258.193 278.383C258.594 278.155 258.896 277.861 259.098 277.502C259.305 277.142 259.409 276.763 259.409 276.366V275.026C259.347 275.1 259.21 275.169 258.999 275.231C258.792 275.289 258.552 275.34 258.279 275.386C258.011 275.427 257.748 275.464 257.491 275.497C257.239 275.526 257.034 275.551 256.877 275.572C256.497 275.622 256.141 275.702 255.81 275.814C255.483 275.921 255.218 276.085 255.016 276.304C254.817 276.519 254.718 276.813 254.718 277.185C254.718 277.694 254.906 278.079 255.283 278.339C255.663 278.596 256.145 278.724 256.728 278.724ZM263.546 279.816V270.286H264.96V271.725H265.06C265.233 271.253 265.548 270.871 266.003 270.577C266.458 270.283 266.971 270.137 267.542 270.137C267.649 270.137 267.784 270.139 267.945 270.143C268.106 270.147 268.228 270.153 268.311 270.161V271.651C268.261 271.638 268.148 271.62 267.97 271.595C267.796 271.566 267.612 271.551 267.417 271.551C266.954 271.551 266.54 271.648 266.176 271.843C265.817 272.033 265.531 272.298 265.32 272.637C265.113 272.972 265.01 273.355 265.01 273.785V279.816H263.546Z" fill="#A9A9A9"/>
<path d="M325.477 279.816H323.864L328.53 267.109H330.118L334.784 279.816H333.171L329.373 269.119H329.274L325.477 279.816ZM326.073 274.852H332.575V276.217H326.073V274.852ZM336.565 283.39V270.286H337.979V271.799H338.153C338.261 271.634 338.41 271.423 338.6 271.167C338.794 270.906 339.071 270.674 339.431 270.472C339.795 270.265 340.288 270.161 340.908 270.161C341.71 270.161 342.418 270.362 343.03 270.763C343.642 271.165 344.12 271.733 344.463 272.47C344.807 273.206 344.978 274.075 344.978 275.076C344.978 276.085 344.807 276.96 344.463 277.7C344.12 278.436 343.644 279.007 343.036 279.413C342.428 279.814 341.727 280.014 340.933 280.014C340.321 280.014 339.83 279.913 339.462 279.71C339.094 279.504 338.811 279.27 338.612 279.009C338.414 278.745 338.261 278.525 338.153 278.352H338.029V283.39H336.565ZM338.004 275.051C338.004 275.77 338.11 276.405 338.321 276.956C338.532 277.502 338.84 277.93 339.245 278.24C339.651 278.546 340.147 278.699 340.734 278.699C341.346 278.699 341.857 278.538 342.267 278.215C342.68 277.888 342.991 277.45 343.198 276.9C343.408 276.345 343.514 275.729 343.514 275.051C343.514 274.381 343.411 273.777 343.204 273.239C343.001 272.697 342.693 272.269 342.279 271.955C341.87 271.636 341.355 271.477 340.734 271.477C340.139 271.477 339.638 271.628 339.233 271.93C338.827 272.228 338.521 272.645 338.314 273.183C338.108 273.717 338.004 274.339 338.004 275.051ZM347.212 279.816V270.286H348.627V271.725H348.726C348.9 271.253 349.214 270.871 349.669 270.577C350.124 270.283 350.637 270.137 351.208 270.137C351.315 270.137 351.45 270.139 351.611 270.143C351.772 270.147 351.894 270.153 351.977 270.161V271.651C351.928 271.638 351.814 271.62 351.636 271.595C351.462 271.566 351.278 271.551 351.084 271.551C350.62 271.551 350.207 271.648 349.843 271.843C349.483 272.033 349.197 272.298 348.986 272.637C348.78 272.972 348.676 273.355 348.676 273.785V279.816H347.212Z" fill="#A9A9A9"/>
<path d="M408.557 267.109H410.393L414.712 277.657H414.861L419.179 267.109H421.016V279.816H419.576V270.161H419.452L415.481 279.816H414.091L410.12 270.161H409.996V279.816H408.557V267.109ZM426.707 280.039C426.103 280.039 425.555 279.926 425.063 279.698C424.571 279.466 424.18 279.133 423.89 278.699C423.601 278.261 423.456 277.731 423.456 277.111C423.456 276.565 423.563 276.122 423.778 275.783C423.994 275.44 424.281 275.171 424.641 274.976C425.001 274.782 425.398 274.637 425.832 274.542C426.271 274.443 426.711 274.364 427.154 274.306C427.733 274.232 428.202 274.176 428.562 274.139C428.926 274.097 429.191 274.029 429.356 273.934C429.526 273.839 429.611 273.673 429.611 273.438V273.388C429.611 272.776 429.443 272.3 429.108 271.961C428.777 271.622 428.275 271.452 427.601 271.452C426.901 271.452 426.353 271.605 425.956 271.911C425.559 272.217 425.28 272.544 425.119 272.891L423.729 272.395C423.977 271.816 424.308 271.365 424.722 271.042C425.139 270.716 425.594 270.488 426.087 270.36C426.583 270.228 427.071 270.161 427.551 270.161C427.857 270.161 428.209 270.199 428.606 270.273C429.007 270.343 429.394 270.49 429.766 270.714C430.142 270.937 430.455 271.274 430.703 271.725C430.951 272.176 431.075 272.78 431.075 273.537V279.816H429.611V278.525H429.536C429.437 278.732 429.272 278.953 429.04 279.189C428.808 279.425 428.5 279.626 428.116 279.791C427.731 279.957 427.261 280.039 426.707 280.039ZM426.93 278.724C427.51 278.724 427.998 278.61 428.395 278.383C428.796 278.155 429.098 277.861 429.301 277.502C429.507 277.142 429.611 276.763 429.611 276.366V275.026C429.549 275.1 429.412 275.169 429.201 275.231C428.995 275.289 428.755 275.34 428.482 275.386C428.213 275.427 427.95 275.464 427.694 275.497C427.441 275.526 427.237 275.551 427.079 275.572C426.699 275.622 426.343 275.702 426.012 275.814C425.685 275.921 425.421 276.085 425.218 276.304C425.019 276.519 424.92 276.813 424.92 277.185C424.92 277.694 425.108 278.079 425.485 278.339C425.865 278.596 426.347 278.724 426.93 278.724ZM434.35 283.39C434.102 283.39 433.88 283.369 433.686 283.328C433.491 283.291 433.357 283.253 433.282 283.216L433.655 281.926C434.011 282.017 434.325 282.05 434.598 282.025C434.871 282 435.113 281.878 435.324 281.659C435.539 281.444 435.735 281.094 435.913 280.61L436.186 279.866L432.662 270.286H434.25L436.881 277.88H436.98L439.611 270.286H441.2L437.154 281.206C436.972 281.698 436.747 282.105 436.478 282.428C436.209 282.755 435.897 282.997 435.541 283.154C435.189 283.311 434.792 283.39 434.35 283.39Z" fill="#A9A9A9"/>
<path d="M503.023 267.109H504.562V276.192C504.562 277.003 504.413 277.692 504.115 278.259C503.817 278.825 503.397 279.255 502.855 279.549C502.313 279.843 501.674 279.99 500.938 279.99C500.243 279.99 499.625 279.863 499.083 279.611C498.541 279.355 498.115 278.991 497.805 278.519C497.494 278.048 497.339 277.487 497.339 276.838H498.853C498.853 277.198 498.942 277.512 499.12 277.781C499.302 278.046 499.55 278.252 499.865 278.401C500.179 278.55 500.537 278.625 500.938 278.625C501.381 278.625 501.757 278.532 502.067 278.345C502.378 278.159 502.613 277.886 502.775 277.526C502.94 277.162 503.023 276.718 503.023 276.192V267.109ZM513.453 275.919V270.286H514.917V279.816H513.453V278.203H513.354C513.13 278.687 512.783 279.098 512.311 279.437C511.84 279.772 511.244 279.94 510.524 279.94C509.929 279.94 509.399 279.81 508.936 279.549C508.473 279.284 508.109 278.887 507.844 278.358C507.579 277.824 507.447 277.152 507.447 276.341V270.286H508.911V276.242C508.911 276.937 509.106 277.491 509.494 277.905C509.887 278.319 510.388 278.525 510.996 278.525C511.36 278.525 511.73 278.432 512.107 278.246C512.487 278.06 512.806 277.775 513.062 277.39C513.323 277.005 513.453 276.515 513.453 275.919ZM519.064 274.083V279.816H517.599V270.286H519.014V271.775H519.138C519.361 271.291 519.701 270.902 520.156 270.608C520.611 270.31 521.198 270.161 521.918 270.161C522.563 270.161 523.128 270.294 523.612 270.559C524.096 270.819 524.472 271.216 524.741 271.75C525.01 272.279 525.144 272.949 525.144 273.76V279.816H523.68V273.859C523.68 273.111 523.485 272.527 523.097 272.11C522.708 271.688 522.174 271.477 521.496 271.477C521.028 271.477 520.611 271.578 520.242 271.781C519.878 271.984 519.591 272.279 519.38 272.668C519.169 273.057 519.064 273.529 519.064 274.083Z" fill="#A9A9A9"/>
<path d="M587.624 267.109H589.163V276.192C589.163 277.003 589.014 277.692 588.716 278.259C588.418 278.825 587.998 279.255 587.456 279.549C586.915 279.843 586.275 279.99 585.539 279.99C584.844 279.99 584.226 279.863 583.684 279.611C583.142 279.355 582.716 278.991 582.406 278.519C582.096 278.048 581.94 277.487 581.94 276.838H583.454C583.454 277.198 583.543 277.512 583.721 277.781C583.903 278.046 584.151 278.252 584.466 278.401C584.78 278.55 585.138 278.625 585.539 278.625C585.982 278.625 586.358 278.532 586.668 278.345C586.979 278.159 587.214 277.886 587.376 277.526C587.541 277.162 587.624 276.718 587.624 276.192V267.109ZM598.054 275.919V270.286H599.518V279.816H598.054V278.203H597.955C597.731 278.687 597.384 279.098 596.912 279.437C596.441 279.772 595.845 279.94 595.125 279.94C594.53 279.94 594 279.81 593.537 279.549C593.074 279.284 592.71 278.887 592.445 278.358C592.18 277.824 592.048 277.152 592.048 276.341V270.286H593.512V276.242C593.512 276.937 593.707 277.491 594.095 277.905C594.488 278.319 594.989 278.525 595.597 278.525C595.961 278.525 596.331 278.432 596.708 278.246C597.088 278.06 597.407 277.775 597.663 277.39C597.924 277.005 598.054 276.515 598.054 275.919ZM603.665 267.109V279.816H602.2V267.109H603.665Z" fill="#A9A9A9"/>
<path d="M661.882 279.816H660.269L664.934 267.109H666.523L671.189 279.816H669.576L665.778 269.119H665.679L661.882 279.816ZM662.477 274.852H668.98V276.217H662.477V274.852ZM678.976 275.919V270.286H680.44V279.816H678.976V278.203H678.876C678.653 278.687 678.306 279.098 677.834 279.437C677.362 279.772 676.767 279.94 676.047 279.94C675.451 279.94 674.922 279.81 674.459 279.549C673.995 279.284 673.631 278.887 673.367 278.358C673.102 277.824 672.97 277.152 672.97 276.341V270.286H674.434V276.242C674.434 276.937 674.628 277.491 675.017 277.905C675.41 278.319 675.911 278.525 676.519 278.525C676.883 278.525 677.253 278.432 677.629 278.246C678.01 278.06 678.328 277.775 678.585 277.39C678.845 277.005 678.976 276.515 678.976 275.919ZM686.969 283.588C686.261 283.588 685.653 283.497 685.145 283.315C684.636 283.137 684.212 282.902 683.873 282.608C683.538 282.318 683.271 282.008 683.072 281.677L684.239 280.858C684.371 281.032 684.539 281.231 684.741 281.454C684.944 281.681 685.221 281.878 685.573 282.043C685.929 282.213 686.394 282.298 686.969 282.298C687.738 282.298 688.373 282.112 688.874 281.739C689.374 281.367 689.624 280.784 689.624 279.99V278.054H689.5C689.393 278.228 689.24 278.443 689.041 278.699C688.847 278.951 688.565 279.177 688.197 279.375C687.833 279.57 687.341 279.667 686.721 279.667C685.951 279.667 685.26 279.485 684.648 279.121C684.04 278.757 683.558 278.228 683.203 277.533C682.851 276.838 682.675 275.994 682.675 275.001C682.675 274.025 682.847 273.175 683.19 272.451C683.533 271.723 684.011 271.16 684.623 270.763C685.236 270.362 685.943 270.161 686.745 270.161C687.366 270.161 687.858 270.265 688.222 270.472C688.59 270.674 688.872 270.906 689.066 271.167C689.265 271.423 689.418 271.634 689.525 271.799H689.674V270.286H691.089V280.089C691.089 280.908 690.903 281.574 690.53 282.087C690.162 282.604 689.666 282.982 689.041 283.222C688.421 283.466 687.73 283.588 686.969 283.588ZM686.919 278.352C687.507 278.352 688.003 278.217 688.408 277.948C688.814 277.679 689.122 277.293 689.333 276.788C689.544 276.283 689.649 275.679 689.649 274.976C689.649 274.29 689.546 273.684 689.339 273.158C689.132 272.633 688.826 272.221 688.421 271.924C688.015 271.626 687.515 271.477 686.919 271.477C686.299 271.477 685.782 271.634 685.368 271.948C684.959 272.263 684.65 272.685 684.444 273.214C684.241 273.744 684.139 274.331 684.139 274.976C684.139 275.638 684.243 276.223 684.45 276.732C684.661 277.237 684.971 277.634 685.38 277.923C685.794 278.209 686.307 278.352 686.919 278.352Z" fill="#A9A9A9"/>
<path d="M755.911 270.286C755.836 269.657 755.534 269.169 755.005 268.821C754.476 268.474 753.826 268.3 753.057 268.3C752.494 268.3 752.002 268.391 751.58 268.573C751.162 268.755 750.835 269.005 750.6 269.324C750.368 269.642 750.252 270.004 750.252 270.41C750.252 270.749 750.333 271.04 750.494 271.284C750.66 271.524 750.871 271.725 751.127 271.886C751.384 272.044 751.652 272.174 751.934 272.277C752.215 272.377 752.473 272.457 752.709 272.519L754 272.867C754.331 272.954 754.699 273.073 755.104 273.227C755.514 273.38 755.905 273.588 756.277 273.853C756.653 274.114 756.964 274.449 757.208 274.858C757.452 275.268 757.574 275.77 757.574 276.366C757.574 277.053 757.394 277.673 757.034 278.228C756.678 278.782 756.157 279.222 755.47 279.549C754.788 279.876 753.958 280.039 752.982 280.039C752.072 280.039 751.284 279.892 750.618 279.599C749.956 279.305 749.435 278.896 749.055 278.37C748.678 277.845 748.465 277.235 748.416 276.54H750.004C750.045 277.02 750.207 277.417 750.488 277.731C750.773 278.041 751.133 278.273 751.568 278.426C752.006 278.575 752.478 278.649 752.982 278.649C753.57 278.649 754.097 278.554 754.564 278.364C755.032 278.17 755.402 277.901 755.675 277.557C755.948 277.21 756.085 276.805 756.085 276.341C756.085 275.919 755.967 275.576 755.731 275.311C755.495 275.047 755.185 274.831 754.8 274.666C754.416 274.501 754 274.356 753.553 274.232L751.99 273.785C750.997 273.5 750.211 273.092 749.632 272.563C749.053 272.033 748.763 271.34 748.763 270.484C748.763 269.773 748.955 269.152 749.34 268.623C749.729 268.089 750.25 267.675 750.904 267.382C751.561 267.084 752.296 266.935 753.106 266.935C753.925 266.935 754.653 267.082 755.29 267.376C755.927 267.665 756.432 268.062 756.804 268.567C757.181 269.071 757.379 269.644 757.4 270.286H755.911ZM763.901 280.014C762.983 280.014 762.191 279.812 761.525 279.406C760.863 278.997 760.352 278.426 759.992 277.694C759.636 276.958 759.458 276.101 759.458 275.125C759.458 274.149 759.636 273.289 759.992 272.544C760.352 271.795 760.852 271.212 761.494 270.794C762.139 270.372 762.892 270.161 763.752 270.161C764.248 270.161 764.739 270.244 765.223 270.41C765.707 270.575 766.147 270.844 766.544 271.216C766.941 271.584 767.258 272.072 767.493 272.681C767.729 273.289 767.847 274.037 767.847 274.927V275.547H760.501V274.281H766.358C766.358 273.744 766.25 273.264 766.035 272.842C765.824 272.42 765.522 272.087 765.129 271.843C764.741 271.599 764.281 271.477 763.752 271.477C763.169 271.477 762.664 271.622 762.238 271.911C761.816 272.197 761.491 272.569 761.264 273.028C761.036 273.487 760.923 273.979 760.923 274.505V275.349C760.923 276.068 761.047 276.678 761.295 277.179C761.547 277.675 761.897 278.054 762.344 278.314C762.79 278.571 763.309 278.699 763.901 278.699C764.286 278.699 764.633 278.645 764.943 278.538C765.258 278.426 765.529 278.261 765.756 278.041C765.984 277.818 766.159 277.541 766.284 277.21L767.698 277.607C767.549 278.087 767.299 278.509 766.947 278.873C766.596 279.233 766.162 279.514 765.644 279.717C765.127 279.915 764.546 280.014 763.901 280.014ZM770.075 283.39V270.286H771.489V271.799H771.663C771.771 271.634 771.919 271.423 772.11 271.167C772.304 270.906 772.581 270.674 772.941 270.472C773.305 270.265 773.797 270.161 774.418 270.161C775.22 270.161 775.928 270.362 776.54 270.763C777.152 271.165 777.63 271.733 777.973 272.47C778.316 273.206 778.488 274.075 778.488 275.076C778.488 276.085 778.316 276.96 777.973 277.7C777.63 278.436 777.154 279.007 776.546 279.413C775.938 279.814 775.237 280.014 774.443 280.014C773.831 280.014 773.34 279.913 772.972 279.71C772.604 279.504 772.321 279.27 772.122 279.009C771.924 278.745 771.771 278.525 771.663 278.352H771.539V283.39H770.075ZM771.514 275.051C771.514 275.77 771.62 276.405 771.831 276.956C772.041 277.502 772.35 277.93 772.755 278.24C773.16 278.546 773.657 278.699 774.244 278.699C774.856 278.699 775.367 278.538 775.777 278.215C776.19 277.888 776.501 277.45 776.707 276.9C776.918 276.345 777.024 275.729 777.024 275.051C777.024 274.381 776.92 273.777 776.714 273.239C776.511 272.697 776.203 272.269 775.789 271.955C775.38 271.636 774.865 271.477 774.244 271.477C773.649 271.477 773.148 271.628 772.743 271.93C772.337 272.228 772.031 272.645 771.824 273.183C771.618 273.717 771.514 274.339 771.514 275.051Z" fill="#A9A9A9"/>
<path d="M846.285 273.462C846.285 274.803 846.043 275.961 845.559 276.937C845.075 277.913 844.411 278.666 843.567 279.195C842.723 279.725 841.76 279.99 840.676 279.99C839.592 279.99 838.628 279.725 837.784 279.195C836.941 278.666 836.277 277.913 835.793 276.937C835.309 275.961 835.067 274.803 835.067 273.462C835.067 272.122 835.309 270.964 835.793 269.988C836.277 269.011 836.941 268.259 837.784 267.729C838.628 267.2 839.592 266.935 840.676 266.935C841.76 266.935 842.723 267.2 843.567 267.729C844.411 268.259 845.075 269.011 845.559 269.988C846.043 270.964 846.285 272.122 846.285 273.462ZM844.796 273.462C844.796 272.362 844.612 271.433 844.244 270.676C843.88 269.919 843.385 269.347 842.761 268.958C842.14 268.569 841.445 268.374 840.676 268.374C839.906 268.374 839.209 268.569 838.585 268.958C837.964 269.347 837.47 269.919 837.102 270.676C836.738 271.433 836.556 272.362 836.556 273.462C836.556 274.563 836.738 275.491 837.102 276.248C837.47 277.005 837.964 277.578 838.585 277.967C839.209 278.356 839.906 278.55 840.676 278.55C841.445 278.55 842.14 278.356 842.761 277.967C843.385 277.578 843.88 277.005 844.244 276.248C844.612 275.491 844.796 274.563 844.796 273.462ZM852.545 280.014C851.652 280.014 850.883 279.804 850.237 279.382C849.592 278.96 849.096 278.378 848.748 277.638C848.401 276.898 848.227 276.052 848.227 275.1C848.227 274.132 848.405 273.278 848.761 272.538C849.12 271.793 849.621 271.212 850.262 270.794C850.907 270.372 851.66 270.161 852.521 270.161C853.191 270.161 853.795 270.286 854.332 270.534C854.87 270.782 855.311 271.129 855.654 271.576C855.997 272.023 856.21 272.544 856.293 273.14H854.829C854.717 272.705 854.469 272.321 854.084 271.986C853.704 271.646 853.191 271.477 852.545 271.477C851.975 271.477 851.474 271.626 851.044 271.924C850.618 272.217 850.285 272.633 850.045 273.171C849.809 273.704 849.691 274.331 849.691 275.051C849.691 275.787 849.807 276.428 850.039 276.974C850.274 277.52 850.605 277.944 851.031 278.246C851.462 278.548 851.966 278.699 852.545 278.699C852.926 278.699 853.271 278.633 853.582 278.501C853.892 278.368 854.154 278.178 854.37 277.93C854.585 277.682 854.738 277.384 854.829 277.036H856.293C856.21 277.599 856.006 278.105 855.679 278.556C855.356 279.003 854.928 279.359 854.394 279.624C853.865 279.884 853.249 280.014 852.545 280.014ZM862.578 270.286V271.526H857.639V270.286H862.578ZM859.079 268.002H860.543V277.086C860.543 277.5 860.603 277.81 860.723 278.017C860.847 278.219 861.004 278.356 861.195 278.426C861.389 278.492 861.594 278.525 861.809 278.525C861.97 278.525 862.103 278.517 862.206 278.501C862.31 278.48 862.392 278.463 862.454 278.451L862.752 279.766C862.653 279.804 862.514 279.841 862.336 279.878C862.159 279.919 861.933 279.94 861.66 279.94C861.246 279.94 860.841 279.851 860.444 279.673C860.051 279.495 859.724 279.224 859.464 278.86C859.207 278.496 859.079 278.037 859.079 277.483V268.002Z" fill="#A9A9A9"/>
<path d="M930.241 267.109V279.816H928.752L921.827 269.839H921.703V279.816H920.164V267.109H921.653L928.603 277.111H928.727V267.109H930.241ZM936.993 280.014C936.133 280.014 935.378 279.81 934.728 279.4C934.083 278.991 933.578 278.418 933.214 277.682C932.854 276.945 932.674 276.085 932.674 275.1C932.674 274.108 932.854 273.241 933.214 272.501C933.578 271.76 934.083 271.185 934.728 270.776C935.378 270.366 936.133 270.161 936.993 270.161C937.853 270.161 938.606 270.366 939.251 270.776C939.901 271.185 940.405 271.76 940.765 272.501C941.129 273.241 941.311 274.108 941.311 275.1C941.311 276.085 941.129 276.945 940.765 277.682C940.405 278.418 939.901 278.991 939.251 279.4C938.606 279.81 937.853 280.014 936.993 280.014ZM936.993 278.699C937.646 278.699 938.184 278.532 938.606 278.196C939.028 277.861 939.34 277.421 939.543 276.875C939.746 276.329 939.847 275.737 939.847 275.1C939.847 274.463 939.746 273.87 939.543 273.32C939.34 272.769 939.028 272.325 938.606 271.986C938.184 271.646 937.646 271.477 936.993 271.477C936.339 271.477 935.802 271.646 935.38 271.986C934.958 272.325 934.645 272.769 934.443 273.32C934.24 273.87 934.139 274.463 934.139 275.1C934.139 275.737 934.24 276.329 934.443 276.875C934.645 277.421 934.958 277.861 935.38 278.196C935.802 278.532 936.339 278.699 936.993 278.699ZM950.998 270.286L947.474 279.816H945.985L942.461 270.286H944.049L946.68 277.88H946.779L949.41 270.286H950.998Z" fill="#A9A9A9"/>
<path d="M1011.69 279.816H1007.77V267.109H1011.86C1013.09 267.109 1014.15 267.363 1015.02 267.872C1015.9 268.377 1016.57 269.102 1017.04 270.05C1017.51 270.993 1017.74 272.122 1017.74 273.438C1017.74 274.761 1017.51 275.901 1017.04 276.856C1016.56 277.808 1015.88 278.54 1014.98 279.053C1014.07 279.562 1012.98 279.816 1011.69 279.816ZM1009.3 278.451H1011.59C1012.64 278.451 1013.51 278.248 1014.2 277.843C1014.89 277.437 1015.41 276.86 1015.74 276.112C1016.08 275.363 1016.25 274.472 1016.25 273.438C1016.25 272.412 1016.09 271.529 1015.75 270.788C1015.42 270.044 1014.92 269.473 1014.25 269.076C1013.58 268.674 1012.75 268.474 1011.76 268.474H1009.3V278.451ZM1024.12 280.014C1023.2 280.014 1022.41 279.812 1021.74 279.406C1021.08 278.997 1020.57 278.426 1020.21 277.694C1019.86 276.958 1019.68 276.101 1019.68 275.125C1019.68 274.149 1019.86 273.289 1020.21 272.544C1020.57 271.795 1021.07 271.212 1021.71 270.794C1022.36 270.372 1023.11 270.161 1023.97 270.161C1024.47 270.161 1024.96 270.244 1025.44 270.41C1025.93 270.575 1026.37 270.844 1026.76 271.216C1027.16 271.584 1027.48 272.072 1027.71 272.681C1027.95 273.289 1028.07 274.037 1028.07 274.927V275.547H1020.72V274.281H1026.58C1026.58 273.744 1026.47 273.264 1026.26 272.842C1026.04 272.42 1025.74 272.087 1025.35 271.843C1024.96 271.599 1024.5 271.477 1023.97 271.477C1023.39 271.477 1022.88 271.622 1022.46 271.911C1022.04 272.197 1021.71 272.569 1021.48 273.028C1021.26 273.487 1021.14 273.979 1021.14 274.505V275.349C1021.14 276.068 1021.27 276.678 1021.51 277.179C1021.77 277.675 1022.12 278.054 1022.56 278.314C1023.01 278.571 1023.53 278.699 1024.12 278.699C1024.51 278.699 1024.85 278.645 1025.16 278.538C1025.48 278.426 1025.75 278.261 1025.98 278.041C1026.2 277.818 1026.38 277.541 1026.5 277.21L1027.92 277.607C1027.77 278.087 1027.52 278.509 1027.17 278.873C1026.82 279.233 1026.38 279.514 1025.86 279.717C1025.35 279.915 1024.77 280.014 1024.12 280.014ZM1034.17 280.014C1033.27 280.014 1032.5 279.804 1031.86 279.382C1031.21 278.96 1030.72 278.378 1030.37 277.638C1030.02 276.898 1029.85 276.052 1029.85 275.1C1029.85 274.132 1030.03 273.278 1030.38 272.538C1030.74 271.793 1031.24 271.212 1031.88 270.794C1032.53 270.372 1033.28 270.161 1034.14 270.161C1034.81 270.161 1035.42 270.286 1035.95 270.534C1036.49 270.782 1036.93 271.129 1037.27 271.576C1037.62 272.023 1037.83 272.544 1037.91 273.14H1036.45C1036.34 272.705 1036.09 272.321 1035.71 271.986C1035.32 271.646 1034.81 271.477 1034.17 271.477C1033.6 271.477 1033.09 271.626 1032.66 271.924C1032.24 272.217 1031.91 272.633 1031.67 273.171C1031.43 273.704 1031.31 274.331 1031.31 275.051C1031.31 275.787 1031.43 276.428 1031.66 276.974C1031.9 277.52 1032.23 277.944 1032.65 278.246C1033.08 278.548 1033.59 278.699 1034.17 278.699C1034.55 278.699 1034.89 278.633 1035.2 278.501C1035.51 278.368 1035.78 278.178 1035.99 277.93C1036.21 277.682 1036.36 277.384 1036.45 277.036H1037.91C1037.83 277.599 1037.63 278.105 1037.3 278.556C1036.98 279.003 1036.55 279.359 1036.02 279.624C1035.49 279.884 1034.87 280.014 1034.17 280.014Z" fill="#A9A9A9"/>
<defs>
<linearGradient id="paint0_linear_189_689" x1="553.656" y1="66.0679" x2="553.656" y2="224.411" gradientUnits="userSpaceOnUse">
<stop stop-color="#3A6FF8" stop-opacity="0.1"/>
<stop offset="1" stop-color="#3A6FF8" stop-opacity="0.02"/>
</linearGradient>
</defs>
</svg>
