<svg width="24" height="12" viewBox="0 0 24 12" fill="none" xmlns="http://www.w3.org/2000/svg">
<g clip-path="url(#clip0_232_372)">
<path d="M7.11054 2.98253C6.81756 2.68956 6.34253 2.68967 6.0497 2.98278C5.75709 3.27566 5.75716 3.75024 6.04985 4.04303L11.297 9.29199C11.3896 9.38514 11.4996 9.45907 11.6209 9.50952C11.7421 9.55997 11.8722 9.58594 12.0035 9.58594C12.1348 9.58594 12.2648 9.55997 12.3861 9.50952C12.5073 9.45907 12.6174 9.38514 12.71 9.29199L17.9599 4.04299C18.2527 3.75028 18.2527 3.27567 17.9599 2.98294C17.6673 2.69025 17.1927 2.69023 16.9 2.98289L12.7121 7.17001C12.3216 7.56047 11.6884 7.56044 11.2979 7.16995L7.11054 2.98253Z" fill="#6B7280"/>
</g>
<defs>
<clipPath id="clip0_232_372">
<rect width="12" height="24" rx="6" transform="matrix(0 1 1 0 0 0)" fill="white"/>
</clipPath>
</defs>
</svg>
