<svg width="64" height="82" viewBox="0 0 64 82" fill="none" xmlns="http://www.w3.org/2000/svg">
<g clip-path="url(#clip0_30_459)">
<path d="M42.9771 54.307C42.9771 57.8136 42.1679 61.0504 40.4595 64.0175C39.7402 65.3662 38.8411 66.625 37.7622 67.7939C36.0538 69.682 33.9859 71.1206 31.5582 72.1097C28.9508 73.1886 25.8938 73.7281 22.3872 73.7281C21.4881 73.7281 20.5889 73.6382 19.7797 73.5483C18.8806 73.4583 18.0714 73.2785 17.2622 73.0088C16.4274 72.7583 15.67 72.5079 14.9183 72.1135C14.8021 72.0525 14.6815 71.9993 14.5564 71.9596C12.1284 71.1883 10.2152 70.761 8.90034 70.761C8.00122 70.761 7.19201 71.1206 6.38279 71.6601C6.29387 71.7134 6.20406 71.7686 6.11337 71.8254C4.83816 72.6239 3.12144 71.9549 2.87514 70.4706L0.19087 54.2943C0.079809 53.625 0.463769 52.9722 1.10268 52.744C1.86748 52.4709 2.70204 52.904 2.9436 53.6793C4.88817 59.921 7.52725 64.2962 10.7885 66.8048C12.7136 68.2924 14.809 69.3542 17.0748 69.9073C17.1992 69.9377 17.3207 69.9791 17.4397 70.0264C18.1902 70.3246 18.9463 70.4079 19.7797 70.4912C20.6788 70.6711 21.7578 70.761 22.7468 70.761C26.0736 70.761 28.681 70.1316 30.8389 68.7829C31.828 68.2434 32.7271 67.5241 33.5363 66.625C34.3455 65.636 35.0648 64.4671 35.6043 63.1184C36.6832 60.7807 37.1328 57.8136 37.1328 54.3969C37.1328 51.5197 35.7841 48.8224 33.0867 46.125C32.6372 45.6754 32.0977 45.2259 31.5582 44.7763C29.76 43.2478 27.4223 41.7193 24.635 40.2807C23.4191 39.6727 22.1192 38.9809 20.8166 38.3672C20.725 38.3241 20.6374 38.2727 20.5481 38.2251C20.3621 38.1259 20.151 38.0517 19.9609 37.9566C19.8367 37.8945 19.7146 37.8272 19.586 37.775C18.7635 37.4409 18.0129 37.1013 17.2622 36.6842C11.5078 34.0768 7.46174 31.5592 5.12402 29.4912C2.24683 26.9737 0.898146 23.0175 0.898146 17.7127C0.898146 13.4868 2.60648 9.44079 6.11306 5.66447C9.61964 1.88816 14.6547 0 21.1284 0C23.9157 0 26.6131 0.449561 29.1306 1.25877C31.6481 2.33772 33.4464 2.96711 34.6152 2.96711C35.4245 2.96711 36.2337 2.69737 36.8631 2.33772C37.6815 1.8262 39.0396 2.11652 39.1296 3.07744L40.3688 16.2948C40.4225 16.8682 40.0901 17.4077 39.5539 17.6176C38.9057 17.8712 38.1742 17.5642 37.8879 16.9298C35.5267 11.6985 33.0871 8.04443 30.5692 6.11404C27.8718 3.95614 24.4552 2.96711 20.2293 2.96711C14.9245 2.96711 11.2381 4.4057 9.25999 7.37281C7.37183 10.3399 6.38279 13.4868 6.38279 16.8136C6.38279 19.9605 7.28192 22.3882 9.08016 24.2763C10.3389 25.5351 13.0363 27.1535 17.2622 29.2215C18.0714 29.6711 18.8806 30.0307 19.7797 30.4803C20.6788 30.9298 21.6679 31.3794 22.7468 31.9189C23.1065 32.0987 23.556 32.2785 24.0056 32.4583C25.9837 33.2675 27.7819 34.0768 29.4003 34.9759C33.4464 37.0439 36.5034 39.2917 38.5714 41.8092C39.8302 43.3377 40.8192 45.0461 41.5385 46.8443C42.3972 48.8194 42.8459 50.8764 42.8845 53.1721C42.8881 53.3877 42.9306 53.6012 42.9569 53.8152C42.9771 53.9791 42.9771 54.1431 42.9771 54.307Z" fill="#3265CB"/>
<path d="M32.3247 48.1369C32.2942 47.9959 32.234 47.863 32.1444 47.75C32.0512 47.6326 31.9267 47.4814 31.8288 47.3835C30.6053 46.228 29.0222 45.0212 27.1183 43.8018C26.3841 43.3315 25.4738 43.9892 25.6592 44.8412L30.1562 65.4966C30.3094 66.2006 31.1393 66.5218 31.6571 66.0209C31.8363 65.8475 32.0123 65.6613 32.1884 65.4559C33.4128 63.9691 34.2969 62.0571 34.758 59.7198C34.7837 59.5892 34.7813 59.4546 34.7531 59.3246L32.3247 48.1369ZM39.1117 69.0523C37.3246 71.0018 35.1707 72.511 32.7161 73.5799C32.2615 73.7778 31.9981 74.2653 32.1057 74.7492L33.5424 81.2144C33.6444 81.6732 34.0514 81.9997 34.5214 81.9997H35.4423C35.9067 81.9997 36.3104 81.6809 36.4179 81.2291L39.293 69.1537C39.3183 69.0478 39.1886 68.9753 39.1117 69.0523ZM59.252 13.3067C59.8814 12.7673 60.7805 12.4975 61.9494 12.4975H62.6548C63.2087 12.4975 63.6577 12.0485 63.6577 11.4946V10.9829C63.6577 10.429 63.2087 9.97998 62.6548 9.97998H50.9671C50.5008 9.97998 50.0961 10.3013 49.9903 10.7555L42.3469 43.5873C42.2901 43.8314 42.3279 44.0873 42.4456 44.3086C42.4782 44.3697 42.5104 44.4312 42.5423 44.493C43.0346 45.4461 44.8404 45.3802 45.0846 44.3356L50.44 21.4265C50.493 21.1996 50.6953 21.0392 50.9282 21.0392C51.2051 21.0392 51.4296 21.2637 51.4296 21.5406V76.1554C51.4296 77.2344 51.1599 78.1335 50.5305 78.673C49.991 79.2124 49.002 79.4822 47.6533 79.4822H46.4983C45.9444 79.4822 45.4954 79.9312 45.4954 80.4851V80.9968C45.4954 81.5507 45.9444 81.9997 46.4983 81.9997H62.6548C63.2087 81.9997 63.6577 81.5507 63.6577 80.9968V80.4851C63.6577 79.9312 63.2087 79.4822 62.6548 79.4822H61.9494C60.7805 79.4822 59.8814 79.2124 59.252 78.673C58.5327 78.0436 58.1731 77.2344 58.1731 76.1554V15.8243C58.1731 14.7453 58.5327 13.8462 59.252 13.3067ZM24.1786 10.769C24.0781 10.3084 23.6703 9.97998 23.1988 9.97998H12.7812C12.2273 9.97998 11.7783 10.429 11.7783 10.9829V11.4946C11.7783 12.0485 12.2273 12.4975 12.7812 12.4975H13.4867C14.9253 12.4975 15.8244 12.7673 16.4538 13.3067C16.9932 13.8462 17.263 14.7453 17.263 15.8243V26.6233C17.263 27.0032 17.4775 27.3504 17.8173 27.5203C17.9825 27.6029 18.1537 27.6885 18.329 27.7762C18.9959 28.1096 19.7805 27.6247 19.7805 26.8792V22.7052C19.7805 22.4306 20.0031 22.208 20.2777 22.208C20.5121 22.208 20.7147 22.3718 20.7639 22.6011L22.178 29.2005C22.2524 29.5476 22.506 29.8269 22.8341 29.9624C23.4684 30.2242 24.1147 30.5592 24.8156 30.8396C25.5657 31.1678 26.3158 31.4715 27.0404 31.7763C27.8172 32.103 28.6841 31.4126 28.5045 30.5893L24.1786 10.769ZM32.3247 48.1369C32.2942 47.9959 32.234 47.863 32.1444 47.75C32.0512 47.6326 31.9267 47.4814 31.8288 47.3835C30.6053 46.228 29.0222 45.0212 27.1183 43.8018C26.3841 43.3315 25.4738 43.9892 25.6592 44.8412L30.1562 65.4966C30.3094 66.2006 31.1393 66.5218 31.6571 66.0209C31.8363 65.8475 32.0123 65.6613 32.1884 65.4559C33.4128 63.9691 34.2969 62.0571 34.758 59.7198C34.7837 59.5892 34.7813 59.4546 34.7531 59.3246L32.3247 48.1369ZM32.3247 48.1369C32.2942 47.9959 32.234 47.863 32.1444 47.75C32.0512 47.6326 31.9267 47.4814 31.8288 47.3835C30.6053 46.228 29.0222 45.0212 27.1183 43.8018C26.3841 43.3315 25.4738 43.9892 25.6592 44.8412L30.1562 65.4966C30.3094 66.2006 31.1393 66.5218 31.6571 66.0209C31.8363 65.8475 32.0123 65.6613 32.1884 65.4559C33.4128 63.9691 34.2969 62.0571 34.758 59.7198C34.7837 59.5892 34.7813 59.4546 34.7531 59.3246L32.3247 48.1369ZM23.5568 79.4822C22.4779 79.4822 21.5788 79.2124 20.8595 78.673C20.1402 78.0436 19.7805 77.2344 19.7805 76.1554C19.7805 75.7351 19.4886 75.3712 19.0775 75.2838C18.8815 75.2421 18.6834 75.2004 18.4854 75.1587C17.8576 75.0265 17.263 75.5138 17.263 76.1554C17.263 77.2008 17.0097 77.993 16.5033 78.6138C16.4708 78.6536 16.4344 78.69 16.3945 78.7223C15.7681 79.2289 14.8807 79.4822 13.4867 79.4822H13.2308C12.6769 79.4822 12.2279 79.9312 12.2279 80.4851V80.9968C12.2279 81.5507 12.6769 81.9997 13.2308 81.9997H23.8127C24.3666 81.9997 24.8156 81.5507 24.8156 80.9968V80.4851C24.8156 79.9312 24.3666 79.4822 23.8127 79.4822H23.5568ZM18.6552 39.4173C18.0014 39.1023 17.263 39.5694 17.263 40.2951V67.4304C17.263 67.862 17.5385 68.2482 17.9545 68.3633C18.1624 68.4209 18.372 68.4742 18.5847 68.5249C19.2003 68.6715 19.7805 68.1921 19.7805 67.5593V40.5998C19.7805 40.1897 19.5299 39.8228 19.1566 39.6529C18.9871 39.5758 18.8202 39.4968 18.6552 39.4173ZM32.3247 48.1369C32.2942 47.9959 32.234 47.863 32.1444 47.75C32.0512 47.6326 31.9267 47.4814 31.8288 47.3835C30.6053 46.228 29.0222 45.0212 27.1183 43.8018C26.3841 43.3315 25.4738 43.9892 25.6592 44.8412L30.1562 65.4966C30.3094 66.2006 31.1393 66.5218 31.6571 66.0209C31.8363 65.8475 32.0123 65.6613 32.1884 65.4559C33.4128 63.9691 34.2969 62.0571 34.758 59.7198C34.7837 59.5892 34.7813 59.4546 34.7531 59.3246L32.3247 48.1369ZM32.3247 48.1369C32.2942 47.9959 32.234 47.863 32.1444 47.75C32.0512 47.6326 31.9267 47.4814 31.8288 47.3835C30.6053 46.228 29.0222 45.0212 27.1183 43.8018C26.3841 43.3315 25.4738 43.9892 25.6592 44.8412L30.1562 65.4966C30.3094 66.2006 31.1393 66.5218 31.6571 66.0209C31.8363 65.8475 32.0123 65.6613 32.1884 65.4559C33.4128 63.9691 34.2969 62.0571 34.758 59.7198C34.7837 59.5892 34.7813 59.4546 34.7531 59.3246L32.3247 48.1369ZM32.3247 48.1369C32.2942 47.9959 32.234 47.863 32.1444 47.75C32.0512 47.6326 31.9267 47.4814 31.8288 47.3835C30.6053 46.228 29.0222 45.0212 27.1183 43.8018C26.3841 43.3315 25.4738 43.9892 25.6592 44.8412L30.1562 65.4966C30.3094 66.2006 31.1393 66.5218 31.6571 66.0209C31.8363 65.8475 32.0123 65.6613 32.1884 65.4559C33.4128 63.9691 34.2969 62.0571 34.758 59.7198C34.7837 59.5892 34.7813 59.4546 34.7531 59.3246L32.3247 48.1369Z" fill="#101967"/>
</g>
<defs>
<clipPath id="clip0_30_459">
<rect width="63.6579" height="82" fill="white"/>
</clipPath>
</defs>
</svg>
