<svg width="20" height="21" viewBox="0 0 20 21" fill="none" xmlns="http://www.w3.org/2000/svg">
<path fill-rule="evenodd" clip-rule="evenodd" d="M17 0C17.7956 0 18.5587 0.316071 19.1213 0.87868C19.6839 1.44129 20 2.20435 20 3V13C20 13.7956 19.6839 14.5587 19.1213 15.1213C18.5587 15.6839 17.7956 16 17 16H5.333L2 18.5C1.176 19.118 0 18.53 0 17.5V3C0 2.20435 0.316071 1.44129 0.87868 0.87868C1.44129 0.316071 2.20435 0 3 0H17ZM9 9H6C5.73478 9 5.48043 9.10536 5.29289 9.29289C5.10536 9.48043 5 9.73478 5 10C5 10.2652 5.10536 10.5196 5.29289 10.7071C5.48043 10.8946 5.73478 11 6 11H9C9.26522 11 9.51957 10.8946 9.70711 10.7071C9.89464 10.5196 10 10.2652 10 10C10 9.73478 9.89464 9.48043 9.70711 9.29289C9.51957 9.10536 9.26522 9 9 9ZM14 5H6C5.74512 5.00028 5.49997 5.09788 5.31463 5.27285C5.1293 5.44782 5.01777 5.68695 5.00283 5.94139C4.98789 6.19584 5.07067 6.44638 5.23426 6.64183C5.39786 6.83729 5.6299 6.9629 5.883 6.993L6 7H14C14.2549 6.99972 14.5 6.90212 14.6854 6.72715C14.8707 6.55218 14.9822 6.31305 14.9972 6.05861C15.0121 5.80416 14.9293 5.55362 14.7657 5.35817C14.6021 5.16271 14.3701 5.0371 14.117 5.007L14 5Z" fill="#6B7280"/>
</svg>
