<svg width="32" height="32" viewBox="0 0 32 32" fill="none" xmlns="http://www.w3.org/2000/svg">
<path d="M8.33333 4C7.18406 4 6.08186 4.45655 5.2692 5.2692C4.45655 6.08186 4 7.18406 4 8.33333V23.6667C4 24.8159 4.45655 25.9181 5.2692 26.7308C6.08186 27.5435 7.18406 28 8.33333 28H23.6667C24.8159 28 25.9181 27.5435 26.7308 26.7308C27.5435 25.9181 28 24.8159 28 23.6667V8.33333C28 7.18406 27.5435 6.08186 26.7308 5.2692C25.9181 4.45655 24.8159 4 23.6667 4H8.33333ZM8 11C8 9.712 9.04533 8.66667 10.3333 8.66667H21.6667C22.9547 8.66667 24 9.712 24 11V13C24 13.6188 23.7542 14.2123 23.3166 14.6499C22.879 15.0875 22.2855 15.3333 21.6667 15.3333H10.3333C9.7145 15.3333 9.121 15.0875 8.68342 14.6499C8.24583 14.2123 8 13.6188 8 13V11ZM10.3333 10.6667C10.2449 10.6667 10.1601 10.7018 10.0976 10.7643C10.0351 10.8268 10 10.9116 10 11V13C10 13.184 10.1493 13.3333 10.3333 13.3333H21.6667C21.7551 13.3333 21.8399 13.2982 21.9024 13.2357C21.9649 13.1732 22 13.0884 22 13V11C22 10.9116 21.9649 10.8268 21.9024 10.7643C21.8399 10.7018 21.7551 10.6667 21.6667 10.6667H10.3333ZM9 17.3333H15C15.2652 17.3333 15.5196 17.4387 15.7071 17.6262C15.8946 17.8138 16 18.0681 16 18.3333C16 18.5985 15.8946 18.8529 15.7071 19.0404C15.5196 19.228 15.2652 19.3333 15 19.3333H9C8.73478 19.3333 8.48043 19.228 8.29289 19.0404C8.10536 18.8529 8 18.5985 8 18.3333C8 18.0681 8.10536 17.8138 8.29289 17.6262C8.48043 17.4387 8.73478 17.3333 9 17.3333ZM8 22.3333C8 22.0681 8.10536 21.8138 8.29289 21.6262C8.48043 21.4387 8.73478 21.3333 9 21.3333H15C15.2652 21.3333 15.5196 21.4387 15.7071 21.6262C15.8946 21.8138 16 22.0681 16 22.3333C16 22.5986 15.8946 22.8529 15.7071 23.0404C15.5196 23.228 15.2652 23.3333 15 23.3333H9C8.73478 23.3333 8.48043 23.228 8.29289 23.0404C8.10536 22.8529 8 22.5986 8 22.3333ZM20.3333 17.3333H21.6667C22.9547 17.3333 24 18.3787 24 19.6667V21C24 21.6188 23.7542 22.2123 23.3166 22.6499C22.879 23.0875 22.2855 23.3333 21.6667 23.3333H20.3333C19.7145 23.3333 19.121 23.0875 18.6834 22.6499C18.2458 22.2123 18 21.6188 18 21V19.6667C18 18.3787 19.0453 17.3333 20.3333 17.3333ZM20 19.6667C20 19.5783 20.0351 19.4935 20.0976 19.431C20.1601 19.3685 20.2449 19.3333 20.3333 19.3333H21.6667C21.7551 19.3333 21.8399 19.3685 21.9024 19.431C21.9649 19.4935 22 19.5783 22 19.6667V21C22 21.0884 21.9649 21.1732 21.9024 21.2357C21.8399 21.2982 21.7551 21.3333 21.6667 21.3333H20.3333C20.2449 21.3333 20.1601 21.2982 20.0976 21.2357C20.0351 21.1732 20 21.0884 20 21V19.6667Z" fill="#6B7280"/>
</svg>
