<svg width="25" height="25" viewBox="0 0 25 25" fill="none" xmlns="http://www.w3.org/2000/svg">
<path d="M10.9751 18.5967C10.9751 18.1924 11.1357 17.8047 11.4216 17.5188C11.7074 17.233 12.0951 17.0724 12.4994 17.0724C12.9037 17.0724 13.2914 17.233 13.5772 17.5188C13.8631 17.8047 14.0237 18.1924 14.0237 18.5967C14.0237 19.0009 13.8631 19.3886 13.5772 19.6745C13.2914 19.9604 12.9037 20.121 12.4994 20.121C12.0951 20.121 11.7074 19.9604 11.4216 19.6745C11.1357 19.3886 10.9751 19.0009 10.9751 18.5967ZM10.9751 12.4994C10.9751 12.0952 11.1357 11.7075 11.4216 11.4216C11.7074 11.1357 12.0951 10.9751 12.4994 10.9751C12.9037 10.9751 13.2914 11.1357 13.5772 11.4216C13.8631 11.7075 14.0237 12.0952 14.0237 12.4994C14.0237 12.9037 13.8631 13.2914 13.5772 13.5773C13.2914 13.8632 12.9037 14.0238 12.4994 14.0238C12.0951 14.0238 11.7074 13.8632 11.4216 13.5773C11.1357 13.2914 10.9751 12.9037 10.9751 12.4994ZM10.9751 6.40223C10.9751 5.99796 11.1357 5.61025 11.4216 5.32439C11.7074 5.03853 12.0951 4.87793 12.4994 4.87793C12.9037 4.87793 13.2914 5.03853 13.5772 5.32439C13.8631 5.61025 14.0237 5.99796 14.0237 6.40223C14.0237 6.8065 13.8631 7.19422 13.5772 7.48008C13.2914 7.76594 12.9037 7.92654 12.4994 7.92654C12.0951 7.92654 11.7074 7.76594 11.4216 7.48008C11.1357 7.19422 10.9751 6.8065 10.9751 6.40223Z" fill="black"/>
</svg>
