<svg width="24" height="24" viewBox="0 0 24 24" fill="none" xmlns="http://www.w3.org/2000/svg">
<path fill-rule="evenodd" clip-rule="evenodd" d="M21.7498 11.9995L22.3723 11.6875V11.6845L22.3678 11.68L22.3588 11.662L22.3273 11.602L22.2073 11.386C22.0609 11.1334 21.9053 10.8863 21.7408 10.645C21.192 9.83946 20.5611 9.09296 19.8583 8.41753C18.1693 6.79753 15.5698 5.14453 11.9998 5.14453C8.43283 5.14453 5.83183 6.79603 4.14283 8.41753C3.44002 9.09296 2.80915 9.83946 2.26033 10.645C2.03764 10.9736 1.83138 11.313 1.64233 11.662L1.63333 11.68L1.63033 11.6845V11.686C1.63033 11.686 1.62883 11.6875 2.25133 11.9995L1.62883 11.686C1.5807 11.7833 1.55566 11.8903 1.55566 11.9988C1.55566 12.1073 1.5807 12.2143 1.62883 12.3115L1.62733 12.3145L1.63183 12.319L1.64083 12.337C1.6876 12.4307 1.73763 12.5228 1.79083 12.613C2.43673 13.7041 3.22685 14.7032 4.13983 15.583C5.83033 17.203 8.42983 18.853 11.9998 18.853C15.5683 18.853 18.1693 17.203 19.8598 15.5815C20.5613 14.9053 21.1916 14.1589 21.7408 13.354C21.9512 13.0444 22.1469 12.725 22.3273 12.397L22.3588 12.337L22.3678 12.319L22.3708 12.3145V12.313C22.3708 12.313 22.3723 12.3115 21.7498 11.9995ZM21.7498 11.9995L22.3723 12.313C22.4205 12.2158 22.4455 12.1088 22.4455 12.0003C22.4455 11.8918 22.4205 11.7848 22.3723 11.6875L21.7498 11.9995ZM11.9098 9.69553C11.2988 9.69553 10.7127 9.93827 10.2807 10.3704C9.84857 10.8024 9.60583 11.3885 9.60583 11.9995C9.60583 12.6106 9.84857 13.1966 10.2807 13.6287C10.7127 14.0608 11.2988 14.3035 11.9098 14.3035C12.5209 14.3035 13.1069 14.0608 13.539 13.6287C13.9711 13.1966 14.2138 12.6106 14.2138 11.9995C14.2138 11.3885 13.9711 10.8024 13.539 10.3704C13.1069 9.93827 12.5209 9.69553 11.9098 9.69553ZM8.21683 11.9995C8.21683 11.0193 8.60623 10.0792 9.29936 9.38606C9.9925 8.69293 10.9326 8.30353 11.9128 8.30353C12.8931 8.30353 13.8332 8.69293 14.5263 9.38606C15.2194 10.0792 15.6088 11.0193 15.6088 11.9995C15.6088 12.9798 15.2194 13.9199 14.5263 14.613C13.8332 15.3061 12.8931 15.6955 11.9128 15.6955C10.9326 15.6955 9.9925 15.3061 9.29936 14.613C8.60623 13.9199 8.21683 12.9798 8.21683 11.9995Z" fill="#052651"/>
</svg>
